<svg width="24" height="24" viewBox="0 0 24 24" fill="none" xmlns="http://www.w3.org/2000/svg">
<path d="M16.2257 9.0204H7.77365C7.77365 9.0204 4.25195 13.1057 4.25195 15.8293C4.25195 18.5529 11.9997 23.3191 11.9997 23.3191C11.9997 23.3191 19.7474 18.5529 19.7474 15.8293C19.7474 13.1057 16.2257 9.0204 16.2257 9.0204Z" fill="#31373D"/>
<path d="M13.1548 0.35951C12.5202 -0.119837 11.4805 -0.119837 10.8459 0.35951L0.475957 8.18702C-0.158652 8.66636 -0.158652 9.45075 0.475957 9.9301L10.8452 17.7569C11.4805 18.2363 12.5195 18.2363 13.1541 17.7569L23.5233 9.9301C24.1587 9.45075 24.1587 8.66636 23.5233 8.18702L13.1548 0.35951Z" fill="#292F33"/>
<path d="M13.1548 0.35951C12.5202 -0.119837 11.4805 -0.119837 10.8459 0.35951L0.475957 8.18702C-0.158652 8.66636 -0.158652 9.45075 0.475957 9.9301L10.8452 17.7569C11.4798 18.2363 12.5195 18.2363 13.1541 17.7569L23.524 9.9301C24.1587 9.45075 24.1587 8.66636 23.524 8.18702L13.1548 0.35951Z" fill="#394146"/>
<path d="M4.95653 16.5102C4.95653 16.5102 3.54785 17.872 3.54785 18.5529V22.6382C3.54785 22.6382 3.54785 24 4.95653 24C6.36521 24 6.36521 22.6382 6.36521 22.6382V18.5529C6.36521 17.872 4.95653 16.5102 4.95653 16.5102Z" fill="#FCAB40"/>
<path d="M4.95628 19.2337C6.12327 19.2337 7.0693 18.3192 7.0693 17.1911C7.0693 16.0629 6.12327 15.1484 4.95628 15.1484C3.78929 15.1484 2.84326 16.0629 2.84326 17.1911C2.84326 18.3192 3.78929 19.2337 4.95628 19.2337Z" fill="#FDD888"/>
<path d="M4.95711 17.872C4.56831 17.872 4.25277 17.5676 4.25277 17.1911V14.4961C4.22319 14.0644 4.38448 13.1098 5.18038 12.5324L11.5349 7.1466C11.8279 6.89807 12.2731 6.92667 12.5288 7.20992C12.7851 7.49249 12.7555 7.92281 12.4632 8.17066L6.06785 13.5892C5.64243 13.8997 5.66074 14.4553 5.66074 14.4607L5.66215 17.1911C5.66215 17.5676 5.34661 17.872 4.95711 17.872Z" fill="#FCAB40"/>
<path d="M11.9997 10.3822C13.1667 10.3822 14.1128 9.46768 14.1128 8.33954C14.1128 7.21141 13.1667 6.29688 11.9997 6.29688C10.8327 6.29688 9.88672 7.21141 9.88672 8.33954C9.88672 9.46768 10.8327 10.3822 11.9997 10.3822Z" fill="#31373D"/>
</svg>
