<svg width="14" height="20" viewBox="0 0 14 20" fill="none" xmlns="http://www.w3.org/2000/svg">
<g clip-path="url(#clip0_8_461)">
<path d="M3.3348 20C5.1748 20 6.66813 18.5067 6.66813 16.6667V13.3333H3.3348C1.4948 13.3333 0.00146484 14.8267 0.00146484 16.6667C0.00146484 18.5067 1.4948 20 3.3348 20Z" fill="#0ACF83"/>
<path d="M0.00146484 10C0.00146484 8.16 1.4948 6.66667 3.3348 6.66667H6.66813V13.3333H3.3348C1.4948 13.3333 0.00146484 11.84 0.00146484 10Z" fill="#A259FF"/>
<path d="M0.00146484 3.33333C0.00146484 1.49333 1.4948 0 3.3348 0H6.66813V6.66667H3.3348C1.4948 6.66667 0.00146484 5.17333 0.00146484 3.33333Z" fill="#F24E1E"/>
<path d="M6.66797 0H10.0013C11.8413 0 13.3346 1.49333 13.3346 3.33333C13.3346 5.17333 11.8413 6.66667 10.0013 6.66667H6.66797V0Z" fill="#FF7262"/>
<path d="M13.3346 10C13.3346 11.84 11.8413 13.3333 10.0013 13.3333C8.1613 13.3333 6.66797 11.84 6.66797 10C6.66797 8.16 8.1613 6.66667 10.0013 6.66667C11.8413 6.66667 13.3346 8.16 13.3346 10Z" fill="#1ABCFE"/>
</g>
<defs>
<clipPath id="clip0_8_461">
<rect width="13.336" height="20" fill="white"/>
</clipPath>
</defs>
</svg>
