<svg width="24" height="24" viewBox="0 3 24 24" fill="none" xmlns="http://www.w3.org/2000/svg">
<path d="M3 12V3H12H21V12V21H12H3V12ZM10.8798 19.5164C11.9623 19.3293 12.6142 18.6371 12.7591 17.5211C12.7736 17.4089 12.7841 16.0786 12.7846 14.2854L12.7854 11.2403H11.9485H11.1116L11.1111 14.118C11.1109 15.8404 11.1004 17.0932 11.0851 17.2386C11.0344 17.7202 10.8543 17.9546 10.473 18.0355C9.93285 18.1499 9.5306 17.9332 9.20036 17.3498C9.15828 17.2754 9.11167 17.2146 9.0968 17.2146C9.07243 17.2146 7.80675 17.9686 7.75542 18.0137C7.70189 18.0607 8.02244 18.5511 8.27232 18.8044C8.886 19.4265 9.86035 19.6926 10.8798 19.5164ZM17.3562 19.5296C18.0445 19.4429 18.6055 19.177 19.0168 18.7425C19.1853 18.5645 19.2486 18.4732 19.3505 18.2614C19.5177 17.9136 19.5592 17.7376 19.5757 17.3047C19.6057 16.5212 19.3987 15.967 18.8969 15.4877C18.5372 15.1441 18.0837 14.8787 17.2275 14.5106C16.3493 14.1332 16.0791 13.9606 15.9504 13.6947C15.861 13.51 15.8657 13.2309 15.9613 13.0361C16.1031 12.7474 16.3766 12.6142 16.7799 12.6371C17.1642 12.6591 17.4322 12.8211 17.6662 13.173L17.7829 13.3486L18.3726 12.9704C18.6969 12.7625 18.9919 12.5691 19.0282 12.5408L19.0942 12.4893L18.9488 12.2738C18.5844 11.7335 18.102 11.3905 17.4925 11.2383C17.1848 11.1614 16.4941 11.1415 16.1588 11.1998C15.6065 11.296 15.2156 11.4897 14.8558 11.8455C14.5301 12.1676 14.354 12.4899 14.2628 12.9311C14.1985 13.2418 14.2244 13.8317 14.3156 14.1361C14.5489 14.9142 15.073 15.4157 16.1501 15.8912C16.3603 15.9839 16.6884 16.1289 16.8794 16.2134C17.6488 16.5537 17.8925 16.7976 17.8925 17.2275C17.8925 17.6252 17.6392 17.9019 17.1613 18.0265C16.9053 18.0932 16.417 18.0696 16.1489 17.9776C15.7836 17.8522 15.4336 17.5701 15.1931 17.2071C15.1238 17.1024 15.0825 17.0625 15.0547 17.0731C14.9749 17.1037 13.7124 17.8434 13.7124 17.8595C13.7124 17.9185 14.1012 18.4467 14.2683 18.6147C15.0093 19.3596 16.1124 19.6864 17.3562 19.5296Z" fill="#EED94D"/>
<path d="M9.96567 19.5542C9.30475 19.5056 8.69975 19.2377 8.27233 18.8044C8.02245 18.5511 7.7019 18.0607 7.75543 18.0137C7.80676 17.9686 9.07244 17.2146 9.09681 17.2146C9.11168 17.2146 9.15828 17.2754 9.20037 17.3498C9.53061 17.9332 9.93285 18.1499 10.473 18.0354C10.8543 17.9546 11.0344 17.7202 11.0851 17.2386C11.1004 17.0932 11.1109 15.8404 11.1111 14.118L11.1116 11.2403H11.9485H12.7854L12.7846 14.2854C12.7841 16.0785 12.7736 17.4088 12.7591 17.5211C12.5759 18.9325 11.5607 19.6714 9.96567 19.5542ZM16.4661 19.556C15.334 19.4773 14.4511 18.9935 13.8896 18.1441C13.7922 17.9967 13.7125 17.8687 13.7125 17.8595C13.7125 17.8434 14.9749 17.1037 15.0547 17.0731C15.0825 17.0624 15.1238 17.1024 15.1931 17.2071C15.4336 17.5701 15.7836 17.8522 16.1489 17.9776C16.417 18.0696 16.9053 18.0932 17.1613 18.0265C17.6392 17.9019 17.8925 17.6252 17.8925 17.2275C17.8925 16.7976 17.6488 16.5537 16.8794 16.2134C16.6884 16.1289 16.3603 15.9839 16.1501 15.8912C15.073 15.4157 14.5489 14.9142 14.3157 14.1361C14.2244 13.8317 14.1985 13.2418 14.2628 12.9311C14.354 12.4899 14.5301 12.1676 14.8558 11.8455C15.2156 11.4897 15.6065 11.296 16.1588 11.1998C16.4941 11.1415 17.1848 11.1614 17.4926 11.2383C18.102 11.3905 18.5844 11.7335 18.9488 12.2738L19.0942 12.4893L19.0282 12.5408C18.9919 12.5691 18.6969 12.7624 18.3726 12.9704L17.7829 13.3486L17.6662 13.173C17.4322 12.8211 17.1642 12.6591 16.7799 12.6371C16.3766 12.6141 16.1031 12.7474 15.9613 13.036C15.8997 13.1615 15.8888 13.2148 15.8906 13.3801C15.8958 13.847 16.1153 14.0326 17.2275 14.5106C18.0838 14.8787 18.5372 15.1441 18.8969 15.4877C19.3987 15.967 19.6057 16.5212 19.5757 17.3047C19.5592 17.7376 19.5177 17.9136 19.3505 18.2614C18.9189 19.1589 17.8237 19.6504 16.4661 19.556Z" fill="#31322F"/>
</svg>
