<svg width="24" height="24" viewBox="0 0 24 24" fill="none" xmlns="http://www.w3.org/2000/svg">
<path d="M11.8271 13.5C12.8627 13.5 13.7021 12.6605 13.7021 11.625C13.7021 10.5895 12.8627 9.75 11.8271 9.75C10.7916 9.75 9.95215 10.5895 9.95215 11.625C9.95215 12.6605 10.7916 13.5 11.8271 13.5Z" fill="#61DAFB"/>
<path d="M11.9543 15.4621C17.3138 15.4621 21.6585 13.8032 21.6585 11.7568C21.6585 9.71045 17.3138 8.05154 11.9543 8.05154C6.59475 8.05154 2.25 9.71045 2.25 11.7568C2.25 13.8032 6.59475 15.4621 11.9543 15.4621Z" stroke="#61DAFB"/>
<path d="M8.74546 13.6094C11.4252 18.2509 15.0342 21.1841 16.8064 20.1609C18.5786 19.1377 17.8429 14.5456 15.1632 9.90414C12.4834 5.26266 8.87438 2.32945 7.10218 3.35263C5.32998 4.37581 6.0657 8.96793 8.74546 13.6094Z" stroke="#61DAFB"/>
<path d="M8.7453 9.90415C6.06554 14.5456 5.32982 19.1377 7.10202 20.1609C8.87422 21.1841 12.4832 18.2509 15.163 13.6094C17.8428 8.96794 18.5785 4.37582 16.8063 3.35264C15.0341 2.32946 11.4251 5.26267 8.7453 9.90415Z" stroke="#61DAFB"/>
</svg>
