<svg width="588" height="542" viewBox="0 0 588 542" fill="none" xmlns="http://www.w3.org/2000/svg">
<path d="M228.84 94.6183C213.961 104.685 208.521 120.411 205.959 128.149C201.729 140.928 202.987 147.378 201.766 178.827C201.199 193.427 200.411 205.258 199.858 212.738C198.492 209.22 197.192 205.407 196.046 201.307C192.775 189.625 191.644 178.939 191.468 170.063C191.453 169.955 186.077 134.551 190.58 103.89C191.162 99.9275 192.01 97.1852 193.757 94.6183C196.92 89.9694 200.418 89.7083 203.67 85.4736C206.893 81.2762 207.106 76.7915 207.483 74.0417C209.35 60.528 221.376 46.0852 227.313 40.5111C242.677 26.0833 264.673 26.5385 277.077 26.7922C288.629 27.031 286.377 29.0718 325.123 36.5077C345.659 40.4477 348.011 40.2052 353.724 43.3653C368.834 51.7265 375.626 66.2924 381.369 78.6122C388.452 93.8012 390.442 107.326 392.428 120.146C396.995 149.613 390.666 148.875 394.896 170.473C395.568 173.899 396.378 181.596 393.574 190.64C392.245 194.93 390.453 198.21 389.191 200.262C388.455 196.135 387.317 189.561 386.043 181.402C384.539 171.735 384.18 168.373 383.09 162.254C382.179 157.15 380.656 149.587 378.131 140.346C378.86 138.413 379.771 135.45 380.039 131.772C380.226 129.179 380.506 120.556 369.745 104.338C362.192 92.958 357.065 85.2273 346.484 79.5711C343.038 77.728 333.673 72.9075 321.889 74.0455C315.352 74.676 311.898 76.7728 306.544 78.9032C285.832 87.1413 278.137 79.3808 250.963 86.2384C241.046 88.7419 235.449 90.156 228.847 94.622L228.84 94.6183Z" stroke="#F6F6F6" stroke-width="4" stroke-miterlimit="10"/>
<path d="M307.518 232.546C306.816 234.986 306.264 238.508 307.899 241.691C308.482 242.825 308.87 242.997 310.95 245.5C313.997 249.172 315.524 251.007 316.67 253.503C317.742 255.832 319.396 259.432 317.812 262.648C316.588 265.14 314.049 266.14 313.235 266.457C310.031 267.719 308.769 265.532 305.991 266.457C304.516 266.95 302.847 269.155 299.509 273.569C297.609 276.083 296.997 277.117 295.41 278.08C293.539 279.214 291.601 279.471 290.261 279.509C288.92 279.497 286.945 279.273 285.112 278.08C283.282 276.889 283.017 275.654 280.949 272.808C278.242 269.08 276.853 267.17 274.53 266.457C271.629 265.566 270.423 267.692 267.287 266.457C266.477 266.137 263.934 265.137 262.709 262.648C261.13 259.432 262.784 255.832 263.852 253.503C264.998 251.007 266.521 249.172 269.572 245.5C271.36 243.348 272.608 241.71 272.622 241.691C275.079 238.699 276.965 230.852 275.643 210.921" stroke="#F6F6F6" stroke-width="4" stroke-miterlimit="10" stroke-linecap="round"/>
<path d="M267.081 165.993C265.614 162.948 259.714 164.168 245.44 163.612C235.658 163.228 235.4 162.523 231.998 163.325C230.68 163.635 220.245 166.265 216.268 175.04C214.468 179.01 214.091 184.066 215.125 184.472C215.458 184.603 215.984 184.267 217.698 182.185C221.465 177.615 222.179 175.298 223.99 173.328C226.51 170.585 229.87 169.918 232.854 169.328C240.381 167.843 243.491 171.339 257.157 172.429C261.152 172.746 264.613 172.746 266.308 170.559C267.163 169.455 267.802 167.496 267.077 165.993H267.081Z" fill="#F6F6F6"/>
<path d="M247.531 298.854C255.985 302.525 271.905 308.133 292.527 307.618C313.216 307.103 328.879 300.667 337.142 296.567" stroke="#F6F6F6" stroke-width="4" stroke-miterlimit="10" stroke-linecap="round"/>
<path d="M395.191 189.972C403.11 186.729 405.492 188.117 406.318 188.968C407.695 190.382 406.993 192.606 404.63 202.833C401.953 214.414 401.628 216.854 401.77 219.98C402.009 225.241 403.211 224.771 403.2 229.412C403.181 236.509 400.366 237.662 399.481 245.702C398.831 251.608 400.273 251.724 399.481 257.705C398.943 261.768 397.879 269.83 393.761 270.849C390.778 271.588 386.932 268.442 384.038 263.991" stroke="#F6F6F6" stroke-width="4" stroke-miterlimit="10" stroke-linecap="round"/>
<path d="M397.48 201.974C395.527 207.175 394.149 211.671 393.19 215.119C388.888 230.584 390.665 233.427 391.759 234.554C392.966 235.792 395 236.639 396.05 235.983C397.315 235.192 397.218 232.177 395.762 228.267" stroke="#F6F6F6" stroke-width="4" stroke-miterlimit="10" stroke-linecap="round"/>
<path d="M192.286 189.972C184.367 186.729 181.985 188.117 181.16 188.968C179.782 190.382 180.484 192.606 182.847 202.833C185.524 214.414 185.849 216.854 185.707 219.98C185.468 225.241 184.266 224.771 184.277 229.412C184.296 236.509 187.111 237.662 187.996 245.702C188.646 251.608 187.205 251.724 187.996 257.705C188.534 261.768 189.598 269.83 193.716 270.849C196.7 271.588 200.545 268.442 203.439 263.991" stroke="#F6F6F6" stroke-width="4" stroke-miterlimit="10" stroke-linecap="round"/>
<path d="M189.998 201.974C191.95 207.175 193.328 211.671 194.288 215.119C198.589 230.584 196.812 233.427 195.718 234.554C194.512 235.792 192.477 236.639 191.428 235.983C190.162 235.192 190.259 232.177 191.715 228.267" stroke="#F6F6F6" stroke-width="4" stroke-miterlimit="10" stroke-linecap="round"/>
<path d="M384.419 249.414C383.516 256.04 382.284 266.025 381.272 278.277C380.11 292.351 380.409 295.347 379.554 300.854C378.273 309.125 375.488 316.08 360.105 339.72C342.866 366.214 334.032 379.578 323.499 385.16C312.492 390.991 301.712 392.04 294.902 392.114H293.042C286.228 392.04 275.449 390.995 264.445 385.16C253.912 379.578 245.078 366.217 227.839 339.72C212.46 316.08 209.671 309.125 208.39 300.854C207.539 295.347 207.834 292.351 206.672 278.277C205.664 266.025 204.428 256.037 203.525 249.414" stroke="#F6F6F6" stroke-width="4" stroke-miterlimit="10" stroke-linecap="round"/>
<path d="M237.618 355.002C236.513 360.725 234.556 369.59 231.14 380.328C227.238 392.581 225.382 394.857 226.215 399.834C227.936 410.098 238.54 416.605 252.135 424.943C268.115 434.745 276.442 439.853 289.069 440.461C301.51 441.058 311.36 436.118 331.06 426.234C348.575 417.448 362.252 410.381 363.069 399.834C363.334 396.409 362.091 394.607 358.663 387.118C353.503 375.851 349.956 366.034 347.518 358.453" stroke="#F6F6F6" stroke-width="4" stroke-miterlimit="10"/>
<path d="M279.926 412.989C281.128 414.071 285.347 417.612 291.773 417.899C299.786 418.257 305.043 413.284 305.935 412.411" stroke="#F6F6F6" stroke-width="4" stroke-miterlimit="10" stroke-linecap="round"/>
<path d="M226.017 393.256C200.06 412.474 177.87 418.313 161.957 419.929C143.534 421.802 128.035 418.575 113.91 429.074C103.389 436.894 98.6953 448.568 96.3691 457.269" stroke="#F6F6F6" stroke-width="4" stroke-miterlimit="10" stroke-linecap="round"/>
<path d="M361.983 393.256C387.94 412.474 410.13 418.313 426.043 419.929C444.466 421.802 459.965 418.575 474.09 429.074C484.612 436.894 489.305 448.568 491.631 457.269" stroke="#F6F6F6" stroke-width="4" stroke-miterlimit="10" stroke-linecap="round"/>
<path opacity="0.08" d="M109.262 497.661C97.9371 481.379 101.622 452.855 115.743 440.886C122.016 435.569 130.955 433.879 148.918 430.98C167.053 428.055 171.16 429.473 182.093 427.171C191.61 425.164 204.873 420.638 219.845 409.262C223.975 415.086 230.486 423.014 240.056 430.6C246.695 435.86 256.94 443.979 272.469 447.747C289.674 451.919 303.732 448.411 312.506 446.221C327.094 442.584 340.256 435.692 348.351 429.074C349.307 428.294 351.259 426.645 354.452 424.119C361.55 418.511 367.576 414.276 371.612 411.545C382.698 418.787 392.394 422.276 399.067 424.119C415.144 428.562 423.445 426.156 447.494 431.357C463.908 434.909 467.626 437.67 469.228 438.979C483.461 450.605 482.274 471.413 482.192 472.51C481.553 481.386 478.193 488.05 476.091 491.561C464.367 486.617 445.358 479.625 421.182 475.558C359.108 465.111 306.663 477.879 282.382 484.322C239.47 495.709 237.263 504.179 199.253 509.854C168.737 514.409 125.41 520.875 109.262 497.661Z" fill="#F6F6F6"/>
<path d="M317.488 165.993C318.955 162.948 324.854 164.168 339.129 163.612C348.911 163.228 349.169 162.523 352.57 163.325C353.888 163.635 364.324 166.265 368.301 175.04C370.1 179.01 370.477 184.066 369.443 184.472C369.111 184.603 368.584 184.267 366.871 182.185C363.103 177.615 362.39 175.298 360.579 173.328C358.059 170.585 354.698 169.918 351.715 169.328C344.188 167.843 341.078 171.339 327.412 172.429C323.417 172.746 319.956 172.746 318.26 170.559C317.405 169.455 316.767 167.496 317.491 165.993H317.488Z" fill="#F6F6F6"/>
<g opacity="0.25">
<path d="M273.331 273.799C268.618 273.713 267.614 276.146 259.601 278.665C256.771 279.554 254.087 280.398 250.45 280.667C242.799 281.232 240.018 278.586 237.296 280.667C235.063 282.379 234.914 285.712 234.723 290.114C234.514 294.857 235.429 298.676 236.153 300.993C236.855 300.047 237.882 298.814 239.301 297.558C239.301 297.558 241.75 295.384 244.45 294.124C248.456 292.252 252.365 293.41 258.463 294.412C259.777 294.629 266.737 295.746 273.334 295.843C280.959 295.959 288.807 295.993 291.742 291.191C293.571 288.194 293.191 283.784 291.256 281.086C290.779 280.421 289.797 279.289 281.627 276.378C276.874 274.685 274.495 273.821 273.334 273.803L273.331 273.799Z" fill="#13C6FF"/>
<path d="M308.226 273.799C312.938 273.713 313.943 276.146 321.955 278.665C324.786 279.554 327.47 280.398 331.107 280.667C338.757 281.232 341.539 278.586 344.261 280.667C346.494 282.379 346.643 285.712 346.834 290.114C347.043 294.857 346.128 298.676 345.404 300.993C344.702 300.047 343.675 298.814 342.256 297.558C342.256 297.558 339.807 295.384 337.107 294.124C333.101 292.252 329.191 293.41 323.094 294.412C321.78 294.629 314.82 295.746 308.223 295.843C301.237 295.948 292.395 296.079 289.815 291.191C288.885 289.423 289.266 286.333 289.916 284.109C290.14 283.343 290.465 282.233 291.249 281.086C292.768 278.863 294.997 277.996 299.926 276.378C305.131 274.67 307.733 273.81 308.219 273.803L308.226 273.799Z" fill="#13C6FF"/>
<path d="M268.98 321.602C270.803 318.75 277.654 323.257 291.002 323.033C304.687 322.801 311.124 317.835 313.308 320.742C315.608 323.799 311.105 332.775 304.283 336.643C299.635 339.277 294.856 339.008 290.715 338.777C287.224 338.579 282.512 338.313 277.844 335.342C272.128 331.703 267.166 324.438 268.98 321.602Z" fill="#13C6FF"/>
<path d="M207.777 277.233C212.44 282.013 218.84 289.561 224.078 300.133C228.044 308.141 226.714 308.534 230.657 316.161C235.967 326.441 241.806 332.345 253.25 343.926C259.889 350.641 261.663 351.598 263.832 351.942C270.93 353.063 276.12 348.904 282.994 347.648C285.529 347.185 289.207 346.983 293.956 348.317C293.796 363.104 293.639 377.895 293.478 392.682C282.337 393.22 274.343 390.41 269.959 388.422C260.113 383.96 254.288 377.222 247.53 369.401C242.71 363.818 239.644 359.098 233.517 349.651C229.888 344.053 227.521 340.025 222.936 332.192C213.523 316.109 208.788 307.962 207.493 302.712C206.193 297.446 205.025 288.848 207.78 277.237L207.777 277.233Z" fill="#13C6FF"/>
<path d="M379.493 277.233C374.83 282.013 368.43 289.561 363.191 300.133C359.226 308.141 360.555 308.534 356.613 316.161C351.303 326.441 345.463 332.345 334.019 343.926C327.381 350.641 325.607 351.598 323.438 351.942C316.318 353.067 311.348 348.825 304.276 347.648C302.028 347.274 298.534 347.061 293.956 348.317C293.795 363.104 293.639 377.895 293.478 392.682C304.874 393.28 312.994 390.38 317.311 388.422C327.157 383.956 332.981 377.222 339.74 369.401C344.56 363.818 347.625 359.098 353.752 349.651C357.382 344.053 359.749 340.025 364.334 332.192C373.747 316.109 378.481 307.962 379.777 302.712C381.076 297.446 382.245 288.848 379.489 277.237L379.493 277.233Z" fill="#13C6FF"/>
<path d="M231.878 99.1987C217.626 108.855 212.418 123.945 209.964 131.366C204.804 146.986 208.168 153.627 205.947 179.984C204.774 193.885 202.762 205.099 201.287 212.256C201.082 208.762 200.813 205.193 200.466 201.549C199.454 190.88 197.927 180.869 196.082 171.575C196.067 171.475 190.918 137.51 195.231 108.089C195.787 104.285 196.601 101.658 198.274 99.1949C201.302 94.7368 204.655 94.4864 207.769 90.4206C210.857 86.396 211.058 82.091 211.421 79.4528C213.209 66.4894 224.728 52.6328 230.414 47.2853C245.129 33.4437 266.199 33.881 278.08 34.1239C289.147 34.3518 286.989 36.31 324.102 43.4437C343.772 47.2255 346.023 46.9901 351.497 50.0245C365.973 58.0439 372.477 72.02 377.977 83.8399C384.762 98.4139 386.666 111.389 388.57 123.687C392.942 151.957 386.879 151.247 390.933 171.968C391.576 175.253 392.352 182.637 389.664 191.314C388.391 195.428 386.677 198.575 385.463 200.544C384.758 196.583 383.668 190.279 382.45 182.45C381.009 173.175 380.666 169.95 379.62 164.079C378.746 159.184 377.29 151.927 374.871 143.059C375.569 141.205 376.443 138.362 376.697 134.834C376.876 132.349 377.145 124.075 366.836 108.515C359.6 97.5955 354.69 90.1815 344.556 84.7555C341.255 82.9879 332.287 78.3653 320.996 79.4565C314.734 80.0619 311.426 82.0723 306.3 84.1164C286.462 92.02 279.092 84.5723 253.06 91.1568C243.561 93.5597 238.199 94.9161 231.874 99.1987H231.878Z" fill="#13C6FF"/>
</g>
<circle cx="249.778" cy="204.222" r="8.94444" fill="#F6F6F6"/>
<circle cx="331.778" cy="204.222" r="8.94444" fill="#F6F6F6"/>
<rect x="237" y="208.056" width="25.5556" height="8.94444" fill="#28282A"/>
<rect x="319" y="208.056" width="25.5556" height="8.94444" fill="#28282A"/>
<circle cx="329.222" cy="200.389" r="6.38889" fill="#28282A"/>
<circle cx="247.222" cy="200.389" r="6.38889" fill="#28282A"/>
<path d="M133.21 499.3C133.577 499.3 133.9 499.403 134.18 499.61C134.467 499.81 134.61 500.073 134.61 500.4C134.61 500.567 134.55 500.71 134.43 500.83C134.317 500.943 134.177 501 134.01 501C133.844 501 133.694 500.98 133.56 500.94C133.58 500.88 133.587 500.783 133.58 500.65C133.58 500.517 133.527 500.39 133.42 500.27C133.32 500.15 133.16 500.09 132.94 500.09C132.72 500.09 132.507 500.153 132.3 500.28C132.147 500.673 132.07 501.093 132.07 501.54C132.07 502.493 132.387 502.97 133.02 502.97C133.3 502.97 133.49 502.88 133.59 502.7C133.697 502.513 133.75 502.253 133.75 501.92C134.364 501.92 134.67 502.077 134.67 502.39C134.67 502.777 134.487 503.103 134.12 503.37C133.754 503.63 133.344 503.76 132.89 503.76C132.29 503.76 131.837 503.573 131.53 503.2C131.224 502.827 131.07 502.32 131.07 501.68C131.07 501.033 131.264 500.477 131.65 500.01C132.037 499.537 132.557 499.3 133.21 499.3ZM132.89 505.17C131.89 505.17 131.067 504.817 130.42 504.11C129.774 503.403 129.45 502.55 129.45 501.55C129.45 500.55 129.814 499.69 130.54 498.97C131.274 498.243 132.127 497.88 133.1 497.88C134.074 497.88 134.89 498.223 135.55 498.91C136.21 499.59 136.54 500.43 136.54 501.43C136.54 502.43 136.184 503.303 135.47 504.05C134.757 504.797 133.897 505.17 132.89 505.17ZM130.14 501.53C130.14 502.383 130.417 503.107 130.97 503.7C131.524 504.293 132.194 504.59 132.98 504.59C133.774 504.59 134.45 504.28 135.01 503.66C135.57 503.04 135.85 502.307 135.85 501.46C135.85 500.613 135.59 499.903 135.07 499.33C134.557 498.75 133.87 498.46 133.01 498.46C132.284 498.46 131.62 498.667 131.02 499.08C130.434 499.693 130.14 500.51 130.14 501.53Z" fill="#28282A"/>
<path d="M138.958 501.8C138.958 503.087 139.028 504.113 139.168 504.88C138.955 504.96 138.728 505 138.488 505C138.248 505 138.038 504.923 137.858 504.77C137.685 504.617 137.598 504.407 137.598 504.14C137.598 503.867 137.632 503.353 137.698 502.6C137.765 501.847 137.798 501.263 137.798 500.85C137.798 499.83 137.728 498.847 137.588 497.9C138.082 497.94 138.745 497.96 139.578 497.96C140.412 497.96 141.208 497.9 141.968 497.78C142.048 497.927 142.088 498.103 142.088 498.31C142.088 498.51 142.008 498.69 141.848 498.85C141.695 499.003 141.502 499.08 141.268 499.08C141.042 499.08 140.675 499.047 140.168 498.98C139.668 498.913 139.298 498.88 139.058 498.88C139.005 499.607 138.972 500.273 138.958 500.88C139.345 500.92 139.772 500.94 140.238 500.94C140.712 500.94 141.122 500.87 141.468 500.73C141.548 500.877 141.588 501.053 141.588 501.26C141.588 501.46 141.508 501.643 141.348 501.81C141.195 501.97 141.012 502.05 140.798 502.05C140.585 502.05 140.278 502.01 139.878 501.93C139.478 501.843 139.172 501.8 138.958 501.8Z" fill="#28282A"/>
<path d="M143.408 502.73C143.408 503.21 143.485 503.59 143.638 503.87C143.792 504.143 144.048 504.28 144.408 504.28C144.768 504.28 145.048 504.16 145.248 503.92C145.455 503.673 145.558 503.377 145.558 503.03C145.785 503.03 145.982 503.087 146.148 503.2C146.315 503.313 146.398 503.47 146.398 503.67C146.398 504.083 146.178 504.43 145.738 504.71C145.298 504.983 144.835 505.12 144.348 505.12C143.588 505.12 143.038 504.917 142.698 504.51C142.358 504.097 142.188 503.487 142.188 502.68C142.188 501.873 142.415 501.197 142.868 500.65C143.328 500.097 143.938 499.82 144.698 499.82C145.218 499.82 145.635 499.94 145.948 500.18C146.268 500.413 146.428 500.78 146.428 501.28C146.428 501.773 146.202 502.147 145.748 502.4C145.302 502.647 144.755 502.77 144.108 502.77C143.882 502.77 143.648 502.757 143.408 502.73ZM143.418 501.94C143.618 501.98 143.828 502 144.048 502C144.528 502 144.932 501.91 145.258 501.73C145.298 501.57 145.318 501.443 145.318 501.35C145.318 501.117 145.235 500.94 145.068 500.82C144.902 500.7 144.672 500.64 144.378 500.64C144.092 500.64 143.832 500.733 143.598 500.92C143.478 501.267 143.418 501.607 143.418 501.94Z" fill="#28282A"/>
<path d="M147.452 504.55C147.658 503.557 147.762 502.527 147.762 501.46C147.762 500.393 147.678 499.313 147.512 498.22C148.418 497.967 149.222 497.84 149.922 497.84C150.962 497.84 151.752 498.113 152.292 498.66C152.838 499.2 153.112 500.023 153.112 501.13C153.112 502.237 152.802 503.17 152.182 503.93C151.568 504.683 150.715 505.06 149.622 505.06C148.875 505.06 148.152 504.89 147.452 504.55ZM149.002 498.85C148.942 499.663 148.912 500.453 148.912 501.22C148.912 501.98 148.948 502.9 149.022 503.98C149.295 504.073 149.602 504.12 149.942 504.12C150.282 504.12 150.575 504.043 150.822 503.89C151.075 503.73 151.268 503.513 151.402 503.24C151.662 502.72 151.792 502.083 151.792 501.33C151.792 500.603 151.652 500.003 151.372 499.53C151.065 498.997 150.588 498.73 149.942 498.73C149.588 498.73 149.275 498.77 149.002 498.85Z" fill="#28282A"/>
<path d="M154.834 502.73C154.834 503.21 154.911 503.59 155.064 503.87C155.218 504.143 155.474 504.28 155.834 504.28C156.194 504.28 156.474 504.16 156.674 503.92C156.881 503.673 156.984 503.377 156.984 503.03C157.211 503.03 157.408 503.087 157.574 503.2C157.741 503.313 157.824 503.47 157.824 503.67C157.824 504.083 157.604 504.43 157.164 504.71C156.724 504.983 156.261 505.12 155.774 505.12C155.014 505.12 154.464 504.917 154.124 504.51C153.784 504.097 153.614 503.487 153.614 502.68C153.614 501.873 153.841 501.197 154.294 500.65C154.754 500.097 155.364 499.82 156.124 499.82C156.644 499.82 157.061 499.94 157.374 500.18C157.694 500.413 157.854 500.78 157.854 501.28C157.854 501.773 157.628 502.147 157.174 502.4C156.728 502.647 156.181 502.77 155.534 502.77C155.308 502.77 155.074 502.757 154.834 502.73ZM154.844 501.94C155.044 501.98 155.254 502 155.474 502C155.954 502 156.358 501.91 156.684 501.73C156.724 501.57 156.744 501.443 156.744 501.35C156.744 501.117 156.661 500.94 156.494 500.82C156.328 500.7 156.098 500.64 155.804 500.64C155.518 500.64 155.258 500.733 155.024 500.92C154.904 501.267 154.844 501.607 154.844 501.94Z" fill="#28282A"/>
<path d="M159.688 503.18C159.668 503.273 159.658 503.35 159.658 503.41C159.658 503.683 159.738 503.893 159.898 504.04C160.064 504.187 160.284 504.26 160.558 504.26C160.838 504.26 161.068 504.21 161.248 504.11C161.434 504.003 161.528 503.847 161.528 503.64C161.528 503.433 161.428 503.27 161.228 503.15C161.034 503.023 160.798 502.923 160.518 502.85C160.244 502.777 159.968 502.697 159.688 502.61C159.408 502.517 159.168 502.373 158.968 502.18C158.774 501.987 158.678 501.743 158.678 501.45C158.678 500.99 158.921 500.603 159.408 500.29C159.894 499.977 160.404 499.82 160.938 499.82C161.524 499.82 161.971 499.94 162.278 500.18C162.458 500.32 162.548 500.507 162.548 500.74C162.548 500.967 162.458 501.153 162.278 501.3C162.104 501.44 161.891 501.51 161.638 501.51C161.584 501.51 161.518 501.503 161.438 501.49C161.458 501.403 161.468 501.327 161.468 501.26C161.468 501.067 161.394 500.92 161.248 500.82C161.101 500.72 160.901 500.67 160.648 500.67C160.401 500.67 160.174 500.72 159.968 500.82C159.888 500.927 159.848 501.063 159.848 501.23C159.848 501.397 159.944 501.533 160.138 501.64C160.331 501.74 160.564 501.83 160.838 501.91C161.118 501.983 161.398 502.07 161.678 502.17C161.958 502.263 162.194 502.413 162.388 502.62C162.581 502.82 162.678 503.073 162.678 503.38C162.678 503.88 162.428 504.297 161.928 504.63C161.434 504.957 160.924 505.12 160.398 505.12C159.871 505.12 159.434 505.027 159.088 504.84C158.748 504.647 158.578 504.357 158.578 503.97C158.578 503.73 158.664 503.537 158.838 503.39C159.018 503.237 159.234 503.16 159.488 503.16C159.541 503.16 159.608 503.167 159.688 503.18Z" fill="#28282A"/>
<path d="M163.388 500.03C163.602 499.97 163.815 499.94 164.028 499.94C164.248 499.94 164.435 500.007 164.588 500.14C164.742 500.273 164.818 500.447 164.818 500.66C164.818 500.867 164.782 501.23 164.708 501.75C164.642 502.263 164.608 502.663 164.608 502.95C164.608 503.697 164.678 504.34 164.818 504.88C164.612 504.96 164.388 505 164.148 505C163.908 505 163.718 504.947 163.578 504.84C163.438 504.727 163.368 504.567 163.368 504.36C163.368 504.147 163.408 503.8 163.488 503.32C163.568 502.84 163.608 502.443 163.608 502.13C163.608 501.297 163.535 500.597 163.388 500.03ZM163.518 497.77C163.752 497.663 163.982 497.61 164.208 497.61C164.435 497.61 164.602 497.67 164.708 497.79C164.822 497.903 164.878 498.073 164.878 498.3C164.878 498.527 164.802 498.727 164.648 498.9C164.502 499.073 164.308 499.16 164.068 499.16C163.575 499.16 163.328 498.903 163.328 498.39C163.328 498.163 163.392 497.957 163.518 497.77Z" fill="#28282A"/>
<path d="M169.297 500.89C168.944 500.783 168.594 500.73 168.247 500.73C167.9 500.73 167.574 500.833 167.267 501.04C167.027 501.52 166.907 502.03 166.907 502.57C166.907 502.883 166.95 503.19 167.037 503.49C167.124 503.783 167.267 503.93 167.467 503.93C167.694 503.93 167.997 503.607 168.377 502.96C168.757 502.313 169.064 501.623 169.297 500.89ZM167.797 506.64C168.224 506.64 168.557 506.493 168.797 506.2C169.037 505.907 169.157 505.53 169.157 505.07C169.157 504.843 169.14 504.513 169.107 504.08C169.08 503.647 169.064 503.34 169.057 503.16C168.584 503.987 168.17 504.493 167.817 504.68C167.637 504.773 167.447 504.82 167.247 504.82C166.747 504.82 166.36 504.623 166.087 504.23C165.814 503.837 165.677 503.357 165.677 502.79C165.677 502.017 165.917 501.34 166.397 500.76C166.884 500.173 167.497 499.88 168.237 499.88C168.984 499.88 169.737 500.01 170.497 500.27C170.297 500.983 170.197 501.683 170.197 502.37C170.197 502.697 170.22 503.103 170.267 503.59C170.314 504.07 170.337 504.427 170.337 504.66C170.337 505.48 170.077 506.157 169.557 506.69C169.037 507.23 168.37 507.5 167.557 507.5C167.077 507.5 166.664 507.407 166.317 507.22C165.977 507.04 165.807 506.757 165.807 506.37C165.807 506.13 165.897 505.927 166.077 505.76C166.257 505.593 166.47 505.51 166.717 505.51C166.77 505.51 166.837 505.517 166.917 505.53C166.897 505.617 166.887 505.693 166.887 505.76C166.887 506 166.977 506.207 167.157 506.38C167.337 506.553 167.55 506.64 167.797 506.64Z" fill="#28282A"/>
<path d="M176.075 500.96L175.975 503.16C175.975 503.767 176.068 504.36 176.255 504.94C176.068 505.02 175.855 505.06 175.615 505.06C175.048 505.06 174.765 504.743 174.765 504.11C174.765 503.823 174.801 503.343 174.875 502.67C174.948 501.99 174.985 501.563 174.985 501.39C174.985 501.057 174.835 500.89 174.535 500.89C174.315 500.89 174.065 501.05 173.785 501.37C173.511 501.683 173.275 502.037 173.075 502.43C172.881 502.817 172.768 503.137 172.735 503.39C172.761 503.91 172.828 504.407 172.935 504.88C172.721 504.96 172.498 505 172.265 505C172.038 505 171.851 504.947 171.705 504.84C171.565 504.727 171.495 504.573 171.495 504.38C171.495 504.18 171.525 503.827 171.585 503.32C171.645 502.807 171.675 502.3 171.675 501.8C171.675 501.293 171.598 500.713 171.445 500.06C171.658 499.98 171.885 499.94 172.125 499.94C172.365 499.94 172.558 500.01 172.705 500.15C172.858 500.29 172.935 500.463 172.935 500.67C172.935 500.877 172.908 501.207 172.855 501.66C173.108 501.187 173.438 500.773 173.845 500.42C174.251 500.06 174.658 499.88 175.065 499.88C175.738 499.88 176.075 500.24 176.075 500.96Z" fill="#28282A"/>
</svg>
